<?xml version="1.0" encoding="iso-8859-1"?>
<!-- Generator: Adobe Illustrator 19.1.0, SVG Export Plug-In . SVG Version: 6.00 Build 0)  -->
<svg version="1.1" id="Capa_1" xmlns="http://www.w3.org/2000/svg" xmlns:xlink="http://www.w3.org/1999/xlink" x="0px" y="0px"
	 viewBox="0 0 513.319 513.319" style="enable-background:new 0 0 513.319 513.319;" xml:space="preserve">
<g>
	<g>
		<g>
			<polygon points="443.807,42.775 409.586,17.109 409.586,17.109 407.446,17.109 88.761,464.126 122.982,489.792 122.982,489.792 
				125.122,489.792 			"/>
			<path d="M180.731,256.659c2.138,0,2.138,0,4.278,0l40.638-55.609c-12.832,6.416-27.805,12.832-44.915,12.832
				c-47.055,0-85.553-38.499-85.553-85.553s38.499-85.553,85.553-85.553s85.553,38.499,85.553,85.553c0,6.416,0,12.832-2.138,19.25
				l40.638-55.609C287.675,38.499,238.482,0,180.733,0c-70.581,0-128.33,57.749-128.33,128.33S110.149,256.659,180.731,256.659z"/>
			<path d="M343.281,256.659l-32.082,44.915c6.416-2.138,12.832-2.138,19.25-2.138c47.055,0,85.553,38.499,85.553,85.553
				s-38.499,85.553-85.553,85.553c-44.915,0-81.275-34.221-83.415-76.997l-32.083,44.915c19.25,44.915,64.165,74.859,117.636,74.859
				c70.581,0,128.33-57.749,128.33-128.33C458.779,318.685,407.446,263.075,343.281,256.659L343.281,256.659z"/>
		</g>
	</g>
</g>
<g>
</g>
<g>
</g>
<g>
</g>
<g>
</g>
<g>
</g>
<g>
</g>
<g>
</g>
<g>
</g>
<g>
</g>
<g>
</g>
<g>
</g>
<g>
</g>
<g>
</g>
<g>
</g>
<g>
</g>
</svg>
