<?xml version="1.0" encoding="utf-8"?>
<!-- Generator: Adobe Illustrator 21.0.2, SVG Export Plug-In . SVG Version: 6.00 Build 0)  -->
<svg version="1.1" id="Capa_1" xmlns="http://www.w3.org/2000/svg" xmlns:xlink="http://www.w3.org/1999/xlink" x="0px" y="0px"
	 viewBox="0 0 306 306" style="enable-background:new 0 0 306 306;" xml:space="preserve">
<path d="M191.8,52.5c0.7,0,1.4,0,2,0c2.3,2.8,4.4,5.8,6.9,8.4c18.4,19.2,37.5,39,57.3,59.6c-7.8,0.5-14.4,0.3-21.6,0.7
	c0,48.4,0,96.3,0,144.2c-29.1,0-58.1,0-87.2,0c0-47.9,0-95.7,0-144.2c-7-0.5-13.2,0.1-20.9-0.4c4.4-4.7,8.1-9,11.2-12.3
	C157,89.9,174.4,71.2,191.8,52.5z"/>
<path d="M108.7,265.5c-0.7,0-1.4,0-2,0c-19.2-20.5-38.5-41-58.7-62.6c6.4-0.8,11.1-1.3,16.1-1.9c0-50.2,0-99.3,0-148.4
	c28.4,0,56.8,0,85.2,0l0.6,20.6c-13.8,12.3-38.4,38.2-51.2,51.6c-3.8,4-7.6,8.1-13.7,14.4c17.1,0,31,0,45.8,0
	c0,33.5-0.2,97.4-0.2,97.4S114.5,258.7,108.7,265.5z"/>
</svg>
