<?xml version="1.0" encoding="UTF-8" standalone="no"?>
<!-- Generator: Adobe Illustrator 16.0.0, SVG Export Plug-In . SVG Version: 6.00 Build 0)  -->

<svg
   xmlns:dc="http://purl.org/dc/elements/1.1/"
   xmlns:cc="http://creativecommons.org/ns#"
   xmlns:rdf="http://www.w3.org/1999/02/22-rdf-syntax-ns#"
   xmlns:svg="http://www.w3.org/2000/svg"
   xmlns="http://www.w3.org/2000/svg"
   xmlns:sodipodi="http://sodipodi.sourceforge.net/DTD/sodipodi-0.dtd"
   xmlns:inkscape="http://www.inkscape.org/namespaces/inkscape"
   version="1.1"
   id="Capa_1"
   x="0px"
   y="0px"
   width="75"
   height="75"
   viewBox="0 0 75.000002 75.000002"
   xml:space="preserve"
   sodipodi:docname="dollars-icon.svg"
   inkscape:version="0.92.1 r15371"><metadata
     id="metadata49"><rdf:RDF><cc:Work
         rdf:about=""><dc:format>image/svg+xml</dc:format><dc:type
           rdf:resource="http://purl.org/dc/dcmitype/StillImage" /><dc:title></dc:title></cc:Work></rdf:RDF></metadata><defs
     id="defs47" /><sodipodi:namedview
     pagecolor="#ffffff"
     bordercolor="#666666"
     borderopacity="1"
     objecttolerance="10"
     gridtolerance="10"
     guidetolerance="10"
     inkscape:pageopacity="0"
     inkscape:pageshadow="2"
     inkscape:window-width="1920"
     inkscape:window-height="1017"
     id="namedview45"
     showgrid="false"
     inkscape:zoom="5.128651"
     inkscape:cx="21.058169"
     inkscape:cy="23.007999"
     inkscape:window-x="-8"
     inkscape:window-y="-8"
     inkscape:window-maximized="1"
     inkscape:current-layer="Capa_1" /><g
     id="g12"
     transform="matrix(1.6299033,0,0,1.7914726,0.19498277,-3.8434747)"><g
       id="g10"><path
         d="m 38.902,29.442 c -0.733,0.865 -1.338,1.887 -1.748,3.047 H 8.827 C 8.39,31.336 7.748,30.313 6.977,29.442 H 4.235 c -1.168,0 -2.326,-0.332 -3.331,-0.945 H 0 v 2.921 c 0,1.291 0.84,2.687 1.523,3.276 0.543,0.47 1.694,0.945 2.712,0.945 h 37.544 c 2.326,0 4.236,-1.897 4.236,-4.222 v -3.603 c -1.123,1.011 -2.608,1.627 -4.236,1.627 h -2.877 z"
         id="path2"
         inkscape:connector-curvature="0" /><path
         d="M 41.779,2.075 H 4.235 C 1.91,2.075 0,3.923 0,6.247 v 16.861 c 0,1.291 0.839,2.693 1.523,3.287 0.543,0.47 1.694,0.945 2.712,0.945 h 37.544 c 2.326,0 4.236,-1.908 4.236,-4.232 V 6.247 C 46.016,3.923 44.105,2.075 41.779,2.075 Z m 1.084,16.297 c -2.469,0.886 -4.686,2.928 -5.709,5.816 H 8.827 C 7.773,21.405 5.516,19.359 3.152,18.434 V 10.951 C 5.569,10.059 7.766,8.063 8.81,5.174 h 28.37 c 1.019,3.046 3.163,4.979 5.686,5.831 v 7.367 z"
         id="path4"
         inkscape:connector-curvature="0" /><path
         d="m 22.973,7.227 c -4.122,0 -7.463,3.341 -7.463,7.464 0,4.122 3.341,7.464 7.463,7.464 4.123,0 7.464,-3.342 7.464,-7.464 10e-4,-4.123 -3.341,-7.464 -7.464,-7.464 z m 0.613,11.736 v 1.391 H 22.273 V 19.059 C 21.327,19.018 20.44,18.77 19.917,18.466 l 0.408,-1.613 c 0.579,0.317 1.39,0.606 2.285,0.606 0.786,0 1.322,-0.304 1.322,-0.854 0,-0.524 -0.442,-0.855 -1.462,-1.2 -1.476,-0.497 -2.479,-1.186 -2.479,-2.524 0,-1.213 0.862,-2.165 2.333,-2.454 V 9.114 h 1.366 v 1.218 c 0.893,0.041 1.533,0.234 1.987,0.455 l -0.403,1.558 c -0.359,-0.151 -0.996,-0.469 -1.988,-0.469 -0.896,0 -1.187,0.386 -1.187,0.772 0,0.455 0.48,0.744 1.653,1.186 1.642,0.579 2.295,1.337 2.295,2.579 10e-4,1.227 -0.885,2.275 -2.461,2.55 z"
         id="path6"
         inkscape:connector-curvature="0" /><path
         d="m 38.902,37.742 c -0.733,0.864 -1.338,1.886 -1.748,3.046 H 8.827 C 8.39,39.636 7.748,38.612 6.977,37.742 H 4.235 c -1.168,0 -2.326,-0.332 -3.331,-0.946 H 0 v 2.922 c 0,1.291 0.84,2.687 1.523,3.276 0.543,0.47 1.694,0.946 2.712,0.946 h 37.544 c 2.326,0 4.236,-1.898 4.236,-4.223 v -3.603 c -1.123,1.011 -2.608,1.627 -4.236,1.627 h -2.877 z"
         id="path8"
         inkscape:connector-curvature="0" /></g></g><g
     id="g14"
     transform="translate(0,28.984001)" /><g
     id="g16"
     transform="translate(0,28.984001)" /><g
     id="g18"
     transform="translate(0,28.984001)" /><g
     id="g20"
     transform="translate(0,28.984001)" /><g
     id="g22"
     transform="translate(0,28.984001)" /><g
     id="g24"
     transform="translate(0,28.984001)" /><g
     id="g26"
     transform="translate(0,28.984001)" /><g
     id="g28"
     transform="translate(0,28.984001)" /><g
     id="g30"
     transform="translate(0,28.984001)" /><g
     id="g32"
     transform="translate(0,28.984001)" /><g
     id="g34"
     transform="translate(0,28.984001)" /><g
     id="g36"
     transform="translate(0,28.984001)" /><g
     id="g38"
     transform="translate(0,28.984001)" /><g
     id="g40"
     transform="translate(0,28.984001)" /><g
     id="g42"
     transform="translate(0,28.984001)" /></svg>