<?xml version="1.0" encoding="utf-8"?>
<!-- Generator: Adobe Illustrator 21.0.2, SVG Export Plug-In . SVG Version: 6.00 Build 0)  -->
<svg version="1.1" id="Capa_1" xmlns="http://www.w3.org/2000/svg" xmlns:xlink="http://www.w3.org/1999/xlink" x="0px" y="0px"
	 viewBox="0 0 306 306" style="enable-background:new 0 0 306 306;" xml:space="preserve">
<style type="text/css">
	.st0{fill:none;}
</style>
<path d="M214,118.7c0,0.2,0,0.4,0,0.6c-4.2,0-8.4,0-12.6,0c-1.1,0-1.7-0.2-1.9-1.5c-0.3-2-0.9-3.9-1.2-5.9c-0.2-0.8-0.5-1.1-1.3-1.1
	c-5.8,0-11.7,0-17.5,0c-0.8,0-1.2,0.2-1.5,0.9c-0.8,2.2-1.6,4.4-2.5,6.5c-0.2,0.4-0.8,0.9-1.2,0.9c-4.9,0.1-9.8,0-14.6,0
	c-0.1,0-0.2-0.1-0.3-0.1c0-0.2,0-0.3,0-0.3c7.5-17.1,15.1-34.1,22.6-51.2c1.2-2.7,3.4-4.1,6.3-4.2c4.3-0.1,8.6,0,12.9-0.1
	c0.1,0,0.3,0.1,0.4,0.1c0.1,0.3,0.2,0.6,0.3,1c3.3,14.9,6.5,29.7,9.8,44.6C212.4,112.2,213.2,115.4,214,118.7z M195.4,99.4
	c-1.5-6.9-3-13.8-4.5-20.6c-0.1,0-0.2,0-0.3,0c-2.6,6.8-5.3,13.7-8,20.6C187.1,99.4,191.1,99.4,195.4,99.4z"/>
<path d="M24.8,63.6c0.5-0.1,1.1-0.4,1.6-0.4c7.5,0,14.9,0,22.4,0c0.8,0,1.5,0.1,2.3,0.1c3.1,0.3,5,1.9,5.6,5
	c2.2,10.5,4.4,20.9,6.5,31.4c0.1,0.4,0.2,0.9,0.4,1.7c1.6-4.1,3.1-7.8,4.5-11.6c3.3-8.5,6.7-17,10-25.5c0.3-0.9,0.8-1.2,1.8-1.2
	c4.4,0.1,8.9,0,13.3,0c0.4,0,0.8,0.1,1.4,0.1c-0.2,0.6-0.4,1-0.6,1.4c-7.6,17.8-15.3,35.5-22.9,53.3c-0.4,0.9-0.8,1.2-1.8,1.2
	c-4.5-0.1-9.1-0.1-13.6,0c-1,0-1.4-0.4-1.6-1.3c-4.2-15.2-8.5-30.4-12.7-45.7c-0.4-1.4-1-2.3-2.3-2.8c-4.4-1.6-8.7-3.3-13.1-4.9
	c-0.4-0.1-0.8-0.1-1.3-0.2C24.8,64.1,24.8,63.9,24.8,63.6z"/>
<path d="M151.7,62.1c2.6,0.5,5.1,0.9,7.7,1.5c1,0.2,1.9,0.6,2.9,0.9c-0.7,4.1-1.4,8-2,11.7c-3.1-0.7-6-1.7-9-2.1
	c-2.4-0.3-4.8-0.1-7.3,0.1c-0.9,0.1-1.8,0.4-2.6,0.8c-3.5,1.7-3.9,4.9-0.6,7.1c2.2,1.5,4.7,2.6,7,3.9c1.9,1,3.8,2,5.6,3.2
	c8,5.7,8.9,15.9,2.2,23.1c-3.6,3.9-8.3,5.9-13.4,6.9c-1.7,0.4-3.5,0.6-5.2,0.9c-2.3,0-4.6,0-6.9,0c-2.5-0.4-5-0.7-7.5-1.2
	c-2.1-0.4-4.1-1.1-6.3-1.7c0.7-4.3,1.4-8.4,2.1-12.6c1.6,0.6,3.1,1.2,4.6,1.8c4.9,1.8,9.9,2.4,15.1,1.5c1.5-0.3,2.9-0.9,4.1-1.8
	c2.3-1.7,2.4-4.7,0.2-6.5c-1.6-1.3-3.4-2.2-5.2-3.2c-2.9-1.7-6.1-3.1-8.7-5.1c-7.2-5.4-7.9-14.2-1.9-21c4-4.6,9.3-6.6,15.2-7.7
	c1.2-0.2,2.3-0.4,3.5-0.6C147.5,62.1,149.6,62.1,151.7,62.1z"/>
<path d="M91.5,119.2c1-5.7,1.9-11.2,2.8-16.8c2.2-12.7,4.4-25.4,6.5-38.1c0.1-0.8,0.3-1.2,1.2-1.2c4.5,0,9.1,0,13.6,0
	c0.1,0,0.3,0.1,0.6,0.2c-0.5,2.9-1,5.8-1.5,8.7c-2.5,14.9-5.1,29.8-7.6,44.6c-0.4,2.6-0.4,2.6-3,2.6
	C100,119.2,95.9,119.2,91.5,119.2z"/>
<g>
	<path class="st0" d="M87.3,176.3c-1.6,0-3.5,0.3-5.7,0.9c-0.4,2.5-0.6,3.8-0.6,4c1.7-0.6,3.3-0.8,5-0.8c2,0,3,0.6,3,1.7
		c0,0.1,0,0.1,0,0.3c0,0.1-0.1,0.2-0.1,0.4c0,0.1,0,0.3,0,0.5c-0.5-0.1-1.2-0.1-1.9-0.1c-2.6,0-4.7,0.6-6.2,1.8
		c-1.5,1.2-2.2,2.9-2.2,5.1c0,1.5,0.4,2.6,1.2,3.5s1.9,1.3,3.2,1.3c2.1,0,3.8-0.7,4.9-2.2l-0.1,1.9h4c0.1-0.7,0.5-3.9,1.4-9.5
		c0.2-2,0.3-3.2,0.3-3.5C93.5,178.1,91.4,176.3,87.3,176.3z M87.3,189.9c-0.6,0.8-1.4,1.3-2.4,1.3c-1.1,0-1.7-0.6-1.7-1.9
		c0-1.8,1.3-2.7,4-2.7h1.1C88.2,187.9,87.9,189,87.3,189.9z"/>
	<path class="st0" d="M95.4,182.4c0,2.2,1.2,3.9,3.6,5c1,0.4,1.6,0.8,1.8,1.1c0.3,0.3,0.4,0.6,0.4,1c0,1.1-0.9,1.6-2.7,1.6
		c-1.2,0-2.7-0.2-4.3-0.7c-0.4,2.6-0.6,4-0.6,4.1c1.3,0.3,3,0.5,4.9,0.5c4.9,0.1,7.3-1.9,7.3-6c0-2.3-1.1-4-3.4-5.1
		c-1-0.4-1.6-0.7-1.8-0.9c-0.3-0.2-0.4-0.6-0.4-1c0-1,0.8-1.4,2.3-1.4c1.1,0,2.2,0.1,3.5,0.3l0.7-4.1c-1.1-0.2-2.5-0.3-4.2-0.3
		C97.7,176.3,95.4,178.3,95.4,182.4z"/>
	<path class="st0" d="M114,190.5c-0.1,0-0.2,0-0.3,0c-1.1,0-1.6-0.4-1.6-1.3c0-0.2,0.1-0.7,0.2-1.5c0.1-0.8,0.3-1.9,0.6-3.2
		c0.3-1.3,0.4-2.5,0.5-3.4h0.1h2.3l0.6-4.4h-2.4l0.5-2.7h-0.2H110c-1.2,7.1-1.9,11.2-2.1,12.3c-0.4,2.5-0.7,4-0.7,4.7
		c0.1,2.6,1.4,4,3.8,4c1.1,0,2.2-0.2,3.4-0.6l0.1-0.8l0.5-3.1C114.7,190.5,114.3,190.5,114,190.5z"/>
	<polygon class="st0" points="72.2,172.5 67.5,186.3 67.4,172.5 60.5,172.5 56.8,194.6 61.3,194.6 64.2,177.7 64.5,194.6 
		67.8,194.6 73.8,177.7 71.1,194.6 75.8,194.6 79.5,172.5 	"/>
	<path class="st0" d="M138.4,179.4l0.3-2.8h-4.3c-0.4,3.9-1.2,9.5-2.4,16.8l-0.3,1.2h4.7c0.9-5.7,1.6-9.3,2.1-10.8
		c0.5-1.5,1.4-2.1,2.6-2c0.2-0.8,0.4-1.6,0.6-2.3c0.4-1.2,0.8-2.2,1.2-3c-0.6-0.1-1.1-0.1-1.5,0c-0.3,0.1-0.6,0.2-0.9,0.4
		C139.9,177.4,139.2,178.2,138.4,179.4z"/>
	<path class="st0" d="M130.2,189.7c-1.6,0.8-3.2,1.2-4.9,1.2c-1.4,0-2.5-0.3-3.2-0.9c-0.7-0.6-1-1.5-0.8-2.8h9.4
		c0.4-1.6,0.6-3.1,0.6-4.4c0-2-0.6-3.5-1.7-4.7c-1.2-1.2-2.7-1.8-4.7-1.8c-2.4,0-4.3,1-5.9,3s-2.3,4.5-2.3,7.6c0,5.3,2.7,8,8,8
		c1.5,0,3.1-0.2,4.8-0.7L130.2,189.7z M124.6,180.4c0.4,0,0.7,0.1,1,0.2c0.3,0.1,0.5,0.3,0.6,0.4c0.2,0.2,0.3,0.4,0.4,0.5
		s0.1,0.4,0.2,0.7c0,0.3,0.1,0.4,0.1,0.6c0,0.1,0,0.3,0,0.5v0.3h-5.2C122,181.4,123.1,180.4,124.6,180.4z"/>
	<path class="st0" d="M196.2,172.5l-1,6.4c-1.2-1.6-2.7-2.4-4.5-2.4c-2.1,0-3.9,1.1-5.4,3.3s-2.3,4.8-2.3,7.8c0,2.2,0.5,4,1.6,5.4
		s2.4,2,4.2,2c1.6,0,3.1-0.6,4.4-1.9l-0.3,1.6h4.5l3.6-22.1H196.2z M193,188.8c-0.7,1.1-1.6,1.7-2.7,1.7c-1.6,0-2.4-1.2-2.4-3.5
		c0-1.7,0.3-3.2,1-4.3c0.7-1.1,1.5-1.7,2.6-1.7c1.7,0,2.5,1.2,2.5,3.5C194.1,186.2,193.7,187.7,193,188.8z"/>
	<path class="st0" d="M166.2,176.3c-1.6,0-3.5,0.3-5.7,0.9c-0.4,2.5-0.7,3.8-0.7,4c1.7-0.6,3.3-0.8,5-0.8c2,0,3,0.6,3,1.7
		c0,0.3-0.1,0.7-0.2,1.1c-0.4-0.1-1.1-0.1-1.9-0.1c-2.6,0-4.7,0.6-6.1,1.8c-1.4,1.2-2.2,2.9-2.2,5.1c0,1.5,0.4,2.6,1.2,3.5
		c0.8,0.9,1.8,1.3,3.1,1.3c2.2,0,3.9-0.7,5-2.2l-0.1,1.9h3.9c0.2-1.9,0.7-5.1,1.4-9.5c0.2-1.3,0.3-2.5,0.3-3.5
		C172.4,178.1,170.3,176.3,166.2,176.3z M166.1,189.9c-0.6,0.8-1.4,1.3-2.4,1.3c-1.1,0-1.7-0.6-1.7-1.9c0-1.8,1.3-2.7,4-2.7h1
		C167.1,187.9,166.7,189,166.1,189.9z"/>
	<path class="st0" d="M181.9,176.9c-0.6,0.5-1.4,1.3-2.2,2.5c0.2-1.2,0.3-2.2,0.3-2.8h-4.4c-0.6,5.3-1.4,10.9-2.4,16.8l-0.3,1.2h4.7
		c1-5.8,1.7-9.5,2.2-10.9c0.5-1.4,1.4-2.1,2.7-1.9c0.4-2.1,1-3.9,1.8-5.2C183.4,176.3,182.6,176.5,181.9,176.9z"/>
	<path class="st0" d="M148.9,189c-0.8-1-1.1-2.3-1.1-4c0-2.4,0.6-4.4,1.7-5.9c1.1-1.5,2.6-2.3,4.3-2.3c1.2,0,2.6,0.4,4.2,1.2
		l0.8-4.8c-2-0.7-3.7-1.1-5.1-1.1c-3.1,0-5.7,1.3-7.7,3.8s-3,5.7-3,9.7c0,2.9,0.7,5.2,2.2,7c1.5,1.7,3.5,2.6,6,2.6
		c1.2,0,2.6-0.2,4.2-0.7l0.8-5c-1.5,0.7-2.9,1.1-4,1.1C150.7,190.4,149.6,189.9,148.9,189z"/>
	<path d="M83.2,189.3c0,1.2,0.6,1.9,1.7,1.9c1,0,1.7-0.4,2.4-1.3c0.6-0.8,1-1.9,1-3.3h-1.1C84.5,186.6,83.2,187.5,83.2,189.3z"/>
	<path d="M163.7,133.2c-14.1,0-26.9,5.9-36,15.3c-9.1-9.4-21.9-15.3-36-15.3c-27.8,0-50.2,22.5-50.2,50.3s22.5,50.3,50.2,50.3
		c14.1,0,26.9-5.9,36-15.3c9.1,9.4,21.9,15.3,36,15.3c27.8,0,50.3-22.5,50.3-50.3S191.5,133.2,163.7,133.2z M142.9,176.6
		c-0.5,0.8-0.9,1.8-1.2,3c-0.2,0.7-0.4,1.4-0.6,2.3c-1.2-0.1-2.1,0.6-2.6,2c-0.5,1.5-1.2,5.1-2.1,10.8h-4.7l0.3-1.2
		c1.2-7.3,2.1-12.9,2.4-16.8h4.3l-0.3,2.8c0.8-1.2,1.5-2,2.2-2.5c0.3-0.2,0.5-0.3,0.9-0.4C141.8,176.4,142.4,176.4,142.9,176.6z
		 M71.1,194.6l2.7-17l-6,17h-3.3l-0.3-16.9l-2.9,16.9h-4.5l3.7-22.1h6.8l0.2,13.7l4.6-13.7h7.3l-3.7,22.1H71.1z M93.2,185.1
		c-0.9,5.7-1.4,8.9-1.4,9.5h-4l0.1-1.9c-1.1,1.5-2.8,2.2-4.9,2.2c-1.3,0-2.3-0.4-3.2-1.3s-1.2-2.1-1.2-3.5c0-2.2,0.7-3.9,2.2-5.1
		c1.5-1.2,3.5-1.8,6.2-1.8c0.8,0,1.4,0,1.9,0.1c0-0.2,0-0.3,0-0.5c0-0.1,0.1-0.3,0.1-0.4c0-0.1,0-0.2,0-0.3c0-1.1-1-1.7-3-1.7
		c-1.6,0-3.3,0.3-5,0.8c0-0.2,0.2-1.6,0.6-4c2.1-0.6,4-0.9,5.7-0.9c4.2,0,6.2,1.7,6.2,5.2C93.5,181.9,93.4,183.1,93.2,185.1z
		 M106,180.8c-1.2-0.2-2.4-0.3-3.5-0.3c-1.5,0-2.3,0.5-2.3,1.4c0,0.4,0.1,0.8,0.4,1c0.3,0.2,0.9,0.5,1.8,0.9
		c2.2,1.1,3.4,2.8,3.4,5.1c0,4-2.4,6-7.3,6c-1.9,0-3.5-0.2-4.9-0.5c0-0.1,0.2-1.5,0.6-4.1c1.6,0.4,3.1,0.7,4.3,0.7
		c1.8,0,2.7-0.5,2.7-1.6c0-0.4-0.1-0.7-0.4-1c-0.3-0.3-0.9-0.6-1.8-1.1c-2.4-1.1-3.6-2.8-3.6-5c0-4,2.4-6.1,7.1-6.1
		c1.7,0,3.1,0.1,4.2,0.3L106,180.8z M114.3,194.4c-1.2,0.4-2.3,0.6-3.4,0.6c-2.4,0-3.7-1.3-3.8-4c0-0.7,0.2-2.2,0.7-4.7
		c0.2-1.1,0.9-5.2,2.1-12.3h4.4h0.2l-0.5,2.7h2.4l-0.6,4.4h-2.3h-0.1c-0.1,1-0.3,2.1-0.5,3.4c-0.3,1.3-0.4,2.4-0.6,3.2
		c-0.1,0.8-0.2,1.3-0.2,1.5c0,0.9,0.5,1.3,1.6,1.3c0.1,0,0.2,0,0.3,0c0.3,0,0.7-0.1,1-0.1l-0.5,3.1L114.3,194.4z M124.6,195
		c-5.3,0-8-2.7-8-8c0-3.1,0.8-5.6,2.3-7.6s3.5-3,5.9-3c2,0,3.5,0.6,4.7,1.8c1.2,1.2,1.7,2.8,1.7,4.7c0,1.3-0.2,2.8-0.6,4.4h-9.4
		c-0.2,1.2,0.1,2.2,0.8,2.8c0.7,0.6,1.8,0.9,3.2,0.9c1.7,0,3.3-0.4,4.9-1.2l-0.8,4.6C127.8,194.7,126.1,195,124.6,195z M155.3,194.3
		c-1.6,0.4-3,0.7-4.2,0.7c-2.5,0-4.5-0.9-6-2.6c-1.5-1.7-2.2-4-2.2-7c0-3.9,1-7.2,3-9.7s4.6-3.8,7.7-3.8c1.5,0,3.2,0.4,5.1,1.1
		l-0.8,4.8c-1.6-0.8-3-1.2-4.2-1.2c-1.7,0-3.2,0.8-4.3,2.3c-1.1,1.5-1.7,3.5-1.7,5.9c0,1.7,0.4,3,1.1,4c0.8,1,1.8,1.4,3.2,1.4
		c1.2,0,2.5-0.4,4-1.1L155.3,194.3z M172,185.1c-0.7,4.4-1.2,7.6-1.4,9.5h-3.9l0.1-1.9c-1.1,1.5-2.8,2.2-5,2.2
		c-1.3,0-2.3-0.4-3.1-1.3c-0.8-0.9-1.2-2.1-1.2-3.5c0-2.2,0.7-3.9,2.2-5.1c1.4-1.2,3.5-1.8,6.1-1.8c0.8,0,1.5,0,1.9,0.1
		c0.1-0.4,0.2-0.8,0.2-1.1c0-1.1-1-1.7-3-1.7c-1.6,0-3.3,0.3-5,0.8c0-0.2,0.2-1.6,0.7-4c2.1-0.6,4-0.9,5.7-0.9
		c4.1,0,6.2,1.7,6.2,5.2C172.4,182.6,172.3,183.7,172,185.1z M179.8,183.7c-0.5,1.4-1.2,5-2.2,10.9H173l0.3-1.2
		c1.1-5.8,1.9-11.4,2.4-16.8h4.4c0,0.6-0.1,1.5-0.3,2.8c0.8-1.2,1.6-2,2.2-2.5c0.6-0.5,1.4-0.6,2.3-0.4c-0.8,1.3-1.4,3.1-1.8,5.2
		C181.2,181.7,180.3,182.3,179.8,183.7z M197.3,194.6h-4.5l0.3-1.6c-1.3,1.3-2.8,1.9-4.4,1.9c-1.7,0-3.1-0.7-4.2-2s-1.6-3.1-1.6-5.4
		c0-3,0.8-5.6,2.3-7.8s3.4-3.3,5.4-3.3c1.7,0,3.2,0.8,4.5,2.4l1-6.4h4.7L197.3,194.6z"/>
	<path d="M191.5,180.9c-1.1,0-1.9,0.6-2.6,1.7c-0.7,1.1-1,2.6-1,4.3c0,2.4,0.8,3.5,2.4,3.5c1.1,0,2-0.6,2.7-1.7
		c0.7-1.1,1.1-2.6,1.1-4.4C194.1,182.1,193.2,180.9,191.5,180.9z"/>
	<path d="M162.1,189.3c0,1.2,0.6,1.9,1.7,1.9c1,0,1.7-0.4,2.4-1.3c0.6-0.8,1-1.9,1-3.3h-1C163.4,186.6,162.1,187.5,162.1,189.3z"/>
	<path d="M126.8,183.3c0.1-0.2,0.1-0.4,0-0.5c0-0.1-0.1-0.3-0.1-0.6c0-0.3-0.1-0.5-0.2-0.7s-0.2-0.4-0.4-0.5
		c-0.2-0.2-0.4-0.3-0.6-0.4c-0.3-0.1-0.6-0.2-1-0.2c-1.6,0-2.6,1.1-3,3.2h5.2V183.3z"/>
</g>
</svg>
