<?xml version="1.0" encoding="utf-8"?>
<!-- Generator: Adobe Illustrator 21.0.2, SVG Export Plug-In . SVG Version: 6.00 Build 0)  -->
<svg version="1.1" id="Capa_1" xmlns="http://www.w3.org/2000/svg" xmlns:xlink="http://www.w3.org/1999/xlink" x="0px" y="0px"
	 viewBox="0 0 306 306" style="enable-background:new 0 0 306 306;" xml:space="preserve">
<path d="M150.8,240.5c-21.5,0-43,0-64.5,0c-14,0-22.9-8.8-22.9-22.7c0-30,0.1-60-0.1-90c-0.1-11,5.1-18.5,14.3-23.8
	c21.1-12.2,42.2-24.5,63.2-36.7c9.6-5.6,19.2-11.3,29-16.4c3.8-2,8.6-3.4,12.7-3c6.8,0.6,10.2,6.4,10.2,14.9c0,26,0,52,0,78
	c0,5.3,0.3,10.7-0.1,16c-0.9,10.4-5.1,18.7-15.6,22.9c-26.4,10.6-52.7,21.3-79,32c-1.7,0.7-3.6,1.3-4.9,2.4
	c-1.3,1.2-2.1,3.1-3.1,4.6c1.8,0.9,3.7,2.8,5.3,2.6c5.7-0.8,11.3-2.2,16.9-3.6c26-6.9,52-13.9,78-20.8c9.3-2.5,17-11.8,17-21.5
	c0-18.3,0.1-36.7-0.1-55c-0.1-4.8,1.6-6.8,6.3-6.2c1.1,0.2,2.3,0,3.5,0c10.7,0,15.1,4.5,15.1,15.1c0,30.5,0,61,0,91.5
	c0,11.4-3,16.3-11.6,19c-1.7,0.5-3.6,0.6-5.4,0.6C193.7,240.5,172.3,240.5,150.8,240.5z M141.9,119.3c-0.2,6.3,4,9.8,10.3,8.6
	c6.4-1.3,12-7.3,12.6-13.8c0.7-7-4.5-11.4-11.3-9.6C147.7,106.1,142.1,113.2,141.9,119.3z"/>
</svg>
